solid OpenSCAD_Model
  facet normal 0.998032 -0.062709 0
    outer loop
      vertex 33.9685 -0.501332 7.5
      vertex 34 0 -1.875
      vertex 34 0 7.5
    endloop
  endfacet
  facet normal 0.998032 -0.062709 0
    outer loop
      vertex 34 0 -1.875
      vertex 33.9685 -0.501332 7.5
      vertex 33.9685 -0.501332 -1.875
    endloop
  endfacet
  facet normal -0.998032 -0.062709 0
    outer loop
      vertex 26.0315 -0.501332 -1.875
      vertex 26 0 1.875
      vertex 26 0 -1.875
    endloop
  endfacet
  facet normal -0.998032 -0.062709 0
    outer loop
      vertex 26 0 1.875
      vertex 26.0315 -0.501332 -1.875
      vertex 26.0315 -0.501332 1.875
    endloop
  endfacet
  facet normal 0 -1 0
    outer loop
      vertex 29.7488 -3.99211 1.875
      vertex 29.7488 -3.99211 -1.875
      vertex 30 -3.99211 1.875
    endloop
  endfacet
  facet normal 0 -1 0
    outer loop
      vertex 30 -3.99211 1.875
      vertex 30.2512 -3.99211 7.5
      vertex 30 -3.99211 7.5
    endloop
  endfacet
  facet normal 0 -1 0
    outer loop
      vertex 30 -3.99211 1.875
      vertex 30.2512 -3.99211 -1.875
      vertex 30.2512 -3.99211 7.5
    endloop
  endfacet
  facet normal 0 -1 0
    outer loop
      vertex 30.2512 -3.99211 -1.875
      vertex 30 -3.99211 1.875
      vertex 29.7488 -3.99211 -1.875
    endloop
  endfacet
  facet normal 0.684521 -0.728993 0
    outer loop
      vertex 32.5497 -3.08205 -1.875
      vertex 32.9159 -2.73819 7.5
      vertex 32.5497 -3.08205 7.5
    endloop
  endfacet
  facet normal 0.684521 -0.728993 0
    outer loop
      vertex 32.9159 -2.73819 7.5
      vertex 32.5497 -3.08205 -1.875
      vertex 32.9159 -2.73819 -1.875
    endloop
  endfacet
  facet normal -0.684521 -0.728993 0
    outer loop
      vertex 27.0841 -2.73819 -1.875
      vertex 27.4503 -3.08205 1.875
      vertex 27.0841 -2.73819 1.875
    endloop
  endfacet
  facet normal -0.684521 -0.728993 -0
    outer loop
      vertex 27.4503 -3.08205 1.875
      vertex 27.0841 -2.73819 -1.875
      vertex 27.4503 -3.08205 -1.875
    endloop
  endfacet
  facet normal -0.368162 -0.929762 0
    outer loop
      vertex 28.2969 -3.61931 -1.875
      vertex 28.7639 -3.80423 1.875
      vertex 28.2969 -3.61931 1.875
    endloop
  endfacet
  facet normal -0.368162 -0.929762 -0
    outer loop
      vertex 28.7639 -3.80423 1.875
      vertex 28.2969 -3.61931 -1.875
      vertex 28.7639 -3.80423 -1.875
    endloop
  endfacet
  facet normal 0.904809 -0.425818 0
    outer loop
      vertex 33.5052 -1.92701 7.5
      vertex 33.7191 -1.4725 -1.875
      vertex 33.7191 -1.4725 7.5
    endloop
  endfacet
  facet normal 0.904809 -0.425818 0
    outer loop
      vertex 33.7191 -1.4725 -1.875
      vertex 33.5052 -1.92701 7.5
      vertex 33.5052 -1.92701 -1.875
    endloop
  endfacet
  facet normal 0.844383 -0.53574 0
    outer loop
      vertex 33.2361 -2.35114 7.5
      vertex 33.5052 -1.92701 -1.875
      vertex 33.5052 -1.92701 7.5
    endloop
  endfacet
  facet normal 0.844383 -0.53574 0
    outer loop
      vertex 33.5052 -1.92701 -1.875
      vertex 33.2361 -2.35114 7.5
      vertex 33.2361 -2.35114 -1.875
    endloop
  endfacet
  facet normal 0.368162 -0.929762 0
    outer loop
      vertex 31.2361 -3.80423 -1.875
      vertex 31.7031 -3.61931 7.5
      vertex 31.2361 -3.80423 7.5
    endloop
  endfacet
  facet normal 0.368162 -0.929762 0
    outer loop
      vertex 31.7031 -3.61931 7.5
      vertex 31.2361 -3.80423 -1.875
      vertex 31.7031 -3.61931 -1.875
    endloop
  endfacet
  facet normal 0.248657 -0.968592 0
    outer loop
      vertex 30.7495 -3.92915 -1.875
      vertex 31.2361 -3.80423 7.5
      vertex 30.7495 -3.92915 7.5
    endloop
  endfacet
  facet normal 0.248657 -0.968592 0
    outer loop
      vertex 31.2361 -3.80423 7.5
      vertex 30.7495 -3.92915 -1.875
      vertex 31.2361 -3.80423 -1.875
    endloop
  endfacet
  facet normal 0.587776 -0.809024 0
    outer loop
      vertex 32.1433 -3.37731 -1.875
      vertex 32.5497 -3.08205 7.5
      vertex 32.1433 -3.37731 7.5
    endloop
  endfacet
  facet normal 0.587776 -0.809024 0
    outer loop
      vertex 32.5497 -3.08205 7.5
      vertex 32.1433 -3.37731 -1.875
      vertex 32.5497 -3.08205 -1.875
    endloop
  endfacet
  facet normal -0.904809 -0.425818 0
    outer loop
      vertex 26.4948 -1.92701 -1.875
      vertex 26.2809 -1.4725 1.875
      vertex 26.2809 -1.4725 -1.875
    endloop
  endfacet
  facet normal -0.904809 -0.425818 0
    outer loop
      vertex 26.2809 -1.4725 1.875
      vertex 26.4948 -1.92701 -1.875
      vertex 26.4948 -1.92701 1.875
    endloop
  endfacet
  facet normal -0.770509 -0.637429 0
    outer loop
      vertex 27.0841 -2.73819 -1.875
      vertex 26.7639 -2.35114 1.875
      vertex 26.7639 -2.35114 -1.875
    endloop
  endfacet
  facet normal -0.770509 -0.637429 0
    outer loop
      vertex 26.7639 -2.35114 1.875
      vertex 27.0841 -2.73819 -1.875
      vertex 27.0841 -2.73819 1.875
    endloop
  endfacet
  facet normal -0.951073 -0.308968 0
    outer loop
      vertex 26.2809 -1.4725 -1.875
      vertex 26.1257 -0.994759 1.875
      vertex 26.1257 -0.994759 -1.875
    endloop
  endfacet
  facet normal -0.951073 -0.308968 0
    outer loop
      vertex 26.1257 -0.994759 1.875
      vertex 26.2809 -1.4725 -1.875
      vertex 26.2809 -1.4725 1.875
    endloop
  endfacet
  facet normal -0.481751 -0.876308 0
    outer loop
      vertex 27.8567 -3.37731 -1.875
      vertex 28.2969 -3.61931 1.875
      vertex 27.8567 -3.37731 1.875
    endloop
  endfacet
  facet normal -0.481751 -0.876308 -0
    outer loop
      vertex 28.2969 -3.61931 1.875
      vertex 27.8567 -3.37731 -1.875
      vertex 28.2969 -3.61931 -1.875
    endloop
  endfacet
  facet normal -0.248657 -0.968592 0
    outer loop
      vertex 28.7639 -3.80423 -1.875
      vertex 29.2505 -3.92915 1.875
      vertex 28.7639 -3.80423 1.875
    endloop
  endfacet
  facet normal -0.248657 -0.968592 -0
    outer loop
      vertex 29.2505 -3.92915 1.875
      vertex 28.7639 -3.80423 -1.875
      vertex 29.2505 -3.92915 -1.875
    endloop
  endfacet
  facet normal 0.951073 -0.308968 0
    outer loop
      vertex 33.7191 -1.4725 7.5
      vertex 33.8743 -0.994759 -1.875
      vertex 33.8743 -0.994759 7.5
    endloop
  endfacet
  facet normal 0.951073 -0.308968 0
    outer loop
      vertex 33.8743 -0.994759 -1.875
      vertex 33.7191 -1.4725 7.5
      vertex 33.7191 -1.4725 -1.875
    endloop
  endfacet
  facet normal 0.98226 -0.187523 0
    outer loop
      vertex 33.8743 -0.994759 7.5
      vertex 33.9685 -0.501332 -1.875
      vertex 33.9685 -0.501332 7.5
    endloop
  endfacet
  facet normal 0.98226 -0.187523 0
    outer loop
      vertex 33.9685 -0.501332 -1.875
      vertex 33.8743 -0.994759 7.5
      vertex 33.8743 -0.994759 -1.875
    endloop
  endfacet
  facet normal 0.770509 -0.637429 0
    outer loop
      vertex 32.9159 -2.73819 7.5
      vertex 33.2361 -2.35114 -1.875
      vertex 33.2361 -2.35114 7.5
    endloop
  endfacet
  facet normal 0.770509 -0.637429 0
    outer loop
      vertex 33.2361 -2.35114 -1.875
      vertex 32.9159 -2.73819 7.5
      vertex 32.9159 -2.73819 -1.875
    endloop
  endfacet
  facet normal 0.125353 -0.992112 0
    outer loop
      vertex 30.2512 -3.99211 -1.875
      vertex 30.7495 -3.92915 7.5
      vertex 30.2512 -3.99211 7.5
    endloop
  endfacet
  facet normal 0.125353 -0.992112 0
    outer loop
      vertex 30.7495 -3.92915 7.5
      vertex 30.2512 -3.99211 -1.875
      vertex 30.7495 -3.92915 -1.875
    endloop
  endfacet
  facet normal 0.481751 -0.876308 0
    outer loop
      vertex 31.7031 -3.61931 -1.875
      vertex 32.1433 -3.37731 7.5
      vertex 31.7031 -3.61931 7.5
    endloop
  endfacet
  facet normal 0.481751 -0.876308 0
    outer loop
      vertex 32.1433 -3.37731 7.5
      vertex 31.7031 -3.61931 -1.875
      vertex 32.1433 -3.37731 -1.875
    endloop
  endfacet
  facet normal -0.844383 -0.53574 0
    outer loop
      vertex 26.7639 -2.35114 -1.875
      vertex 26.4948 -1.92701 1.875
      vertex 26.4948 -1.92701 -1.875
    endloop
  endfacet
  facet normal -0.844383 -0.53574 0
    outer loop
      vertex 26.4948 -1.92701 1.875
      vertex 26.7639 -2.35114 -1.875
      vertex 26.7639 -2.35114 1.875
    endloop
  endfacet
  facet normal -0.98226 -0.187523 0
    outer loop
      vertex 26.1257 -0.994759 -1.875
      vertex 26.0315 -0.501332 1.875
      vertex 26.0315 -0.501332 -1.875
    endloop
  endfacet
  facet normal -0.98226 -0.187523 0
    outer loop
      vertex 26.0315 -0.501332 1.875
      vertex 26.1257 -0.994759 -1.875
      vertex 26.1257 -0.994759 1.875
    endloop
  endfacet
  facet normal 0 0 -1
    outer loop
      vertex 31.7526 -0.963507 -7.5
      vertex 37 0 -7.5
      vertex 37 -4.5 -7.5
    endloop
  endfacet
  facet normal -0 0 -1
    outer loop
      vertex 37 0 -7.5
      vertex 31.9842 -0.250666 -7.5
      vertex 32 0 -7.5
    endloop
  endfacet
  facet normal 0 0 -1
    outer loop
      vertex 37 0 -7.5
      vertex 31.9372 -0.497379 -7.5
      vertex 31.9842 -0.250666 -7.5
    endloop
  endfacet
  facet normal 0 0 -1
    outer loop
      vertex 37 0 -7.5
      vertex 31.8596 -0.736249 -7.5
      vertex 31.9372 -0.497379 -7.5
    endloop
  endfacet
  facet normal 0 0 -1
    outer loop
      vertex 37 0 -7.5
      vertex 31.7526 -0.963507 -7.5
      vertex 31.8596 -0.736249 -7.5
    endloop
  endfacet
  facet normal 0 0 -1
    outer loop
      vertex 37 -4.5 -7.5
      vertex 31.618 -1.17557 -7.5
      vertex 31.7526 -0.963507 -7.5
    endloop
  endfacet
  facet normal 0 0 -1
    outer loop
      vertex 37 -4.5 -7.5
      vertex 31.4579 -1.36909 -7.5
      vertex 31.618 -1.17557 -7.5
    endloop
  endfacet
  facet normal 0 0 -1
    outer loop
      vertex 37 -4.5 -7.5
      vertex 31.2748 -1.54103 -7.5
      vertex 31.4579 -1.36909 -7.5
    endloop
  endfacet
  facet normal 0 0 -1
    outer loop
      vertex 37 -4.5 -7.5
      vertex 31.0717 -1.68865 -7.5
      vertex 31.2748 -1.54103 -7.5
    endloop
  endfacet
  facet normal 0 0 -1
    outer loop
      vertex 37 -4.5 -7.5
      vertex 30.8516 -1.80965 -7.5
      vertex 31.0717 -1.68865 -7.5
    endloop
  endfacet
  facet normal 0 0 -1
    outer loop
      vertex 37 -4.5 -7.5
      vertex 30.618 -1.90211 -7.5
      vertex 30.8516 -1.80965 -7.5
    endloop
  endfacet
  facet normal 0 0 -1
    outer loop
      vertex 37 -4.5 -7.5
      vertex 30.3748 -1.96457 -7.5
      vertex 30.618 -1.90211 -7.5
    endloop
  endfacet
  facet normal 0 0 -1
    outer loop
      vertex 37 -4.5 -7.5
      vertex 30.1256 -1.99605 -7.5
      vertex 30.3748 -1.96457 -7.5
    endloop
  endfacet
  facet normal 0 0 -1
    outer loop
      vertex 37 -4.5 -7.5
      vertex 29.8744 -1.99605 -7.5
      vertex 30.1256 -1.99605 -7.5
    endloop
  endfacet
  facet normal 0 0 -1
    outer loop
      vertex 23 -4.5 -7.5
      vertex 29.8744 -1.99605 -7.5
      vertex 37 -4.5 -7.5
    endloop
  endfacet
  facet normal -0 0 -1
    outer loop
      vertex 29.8744 -1.99605 -7.5
      vertex 23 -4.5 -7.5
      vertex 29.6252 -1.96457 -7.5
    endloop
  endfacet
  facet normal -0 0 -1
    outer loop
      vertex 29.6252 -1.96457 -7.5
      vertex 23 -4.5 -7.5
      vertex 29.382 -1.90211 -7.5
    endloop
  endfacet
  facet normal 0 0 -1
    outer loop
      vertex 23 -4.5 -7.5
      vertex 29.1484 -1.80965 -7.5
      vertex 29.382 -1.90211 -7.5
    endloop
  endfacet
  facet normal 0 0 -1
    outer loop
      vertex 23 -4.5 -7.5
      vertex 28.9283 -1.68865 -7.5
      vertex 29.1484 -1.80965 -7.5
    endloop
  endfacet
  facet normal 0 0 -1
    outer loop
      vertex 23 -4.5 -7.5
      vertex 28.7252 -1.54103 -7.5
      vertex 28.9283 -1.68865 -7.5
    endloop
  endfacet
  facet normal 0 0 -1
    outer loop
      vertex 23 -4.5 -7.5
      vertex 28.5421 -1.36909 -7.5
      vertex 28.7252 -1.54103 -7.5
    endloop
  endfacet
  facet normal 0 0 -1
    outer loop
      vertex 23 -4.5 -7.5
      vertex 28.382 -1.17557 -7.5
      vertex 28.5421 -1.36909 -7.5
    endloop
  endfacet
  facet normal 0 0 -1
    outer loop
      vertex 23 -4.5 -7.5
      vertex 28.2474 -0.963507 -7.5
      vertex 28.382 -1.17557 -7.5
    endloop
  endfacet
  facet normal 0 0 -1
    outer loop
      vertex 23 0 -7.5
      vertex 28.2474 -0.963507 -7.5
      vertex 23 -4.5 -7.5
    endloop
  endfacet
  facet normal 0 0 -1
    outer loop
      vertex 28.2474 -0.963507 -7.5
      vertex 23 0 -7.5
      vertex 28.1404 -0.736249 -7.5
    endloop
  endfacet
  facet normal 0 0 -1
    outer loop
      vertex 28.1404 -0.736249 -7.5
      vertex 23 0 -7.5
      vertex 28.0628 -0.497379 -7.5
    endloop
  endfacet
  facet normal 0 0 -1
    outer loop
      vertex 28.0628 -0.497379 -7.5
      vertex 23 0 -7.5
      vertex 28.0158 -0.250666 -7.5
    endloop
  endfacet
  facet normal 0 0 -1
    outer loop
      vertex 28.0158 -0.250666 -7.5
      vertex 23 0 -7.5
      vertex 28 0 -7.5
    endloop
  endfacet
  facet normal -0.587776 -0.809024 0
    outer loop
      vertex 27.4503 -3.08205 -1.875
      vertex 27.8567 -3.37731 1.875
      vertex 27.4503 -3.08205 1.875
    endloop
  endfacet
  facet normal -0.587776 -0.809024 -0
    outer loop
      vertex 27.8567 -3.37731 1.875
      vertex 27.4503 -3.08205 -1.875
      vertex 27.8567 -3.37731 -1.875
    endloop
  endfacet
  facet normal -0.125353 -0.992112 0
    outer loop
      vertex 29.2505 -3.92915 -1.875
      vertex 29.7488 -3.99211 1.875
      vertex 29.2505 -3.92915 1.875
    endloop
  endfacet
  facet normal -0.125353 -0.992112 -0
    outer loop
      vertex 29.7488 -3.99211 1.875
      vertex 29.2505 -3.92915 -1.875
      vertex 29.7488 -3.99211 -1.875
    endloop
  endfacet
  facet normal -0 0 1
    outer loop
      vertex 31.9842 -0.250666 7.5
      vertex 33.9685 -0.501332 7.5
      vertex 34 0 7.5
    endloop
  endfacet
  facet normal 0 0 1
    outer loop
      vertex 33.9685 -0.501332 7.5
      vertex 31.9842 -0.250666 7.5
      vertex 33.8743 -0.994759 7.5
    endloop
  endfacet
  facet normal 0 0 1
    outer loop
      vertex 33.8743 -0.994759 7.5
      vertex 31.9372 -0.497379 7.5
      vertex 33.7191 -1.4725 7.5
    endloop
  endfacet
  facet normal -0 0 1
    outer loop
      vertex 31.8596 -0.736249 7.5
      vertex 33.7191 -1.4725 7.5
      vertex 31.9372 -0.497379 7.5
    endloop
  endfacet
  facet normal -0 0 1
    outer loop
      vertex 31.7526 -0.963507 7.5
      vertex 33.5052 -1.92701 7.5
      vertex 31.8596 -0.736249 7.5
    endloop
  endfacet
  facet normal 0 0 1
    outer loop
      vertex 33.5052 -1.92701 7.5
      vertex 31.7526 -0.963507 7.5
      vertex 33.2361 -2.35114 7.5
    endloop
  endfacet
  facet normal 0 0 1
    outer loop
      vertex 33.2361 -2.35114 7.5
      vertex 31.618 -1.17557 7.5
      vertex 32.9159 -2.73819 7.5
    endloop
  endfacet
  facet normal 0 0 1
    outer loop
      vertex 31.9842 -0.250666 7.5
      vertex 34 0 7.5
      vertex 32 0 7.5
    endloop
  endfacet
  facet normal 0 0 1
    outer loop
      vertex 33.8743 -0.994759 7.5
      vertex 31.9842 -0.250666 7.5
      vertex 31.9372 -0.497379 7.5
    endloop
  endfacet
  facet normal 0 0 1
    outer loop
      vertex 33.7191 -1.4725 7.5
      vertex 31.8596 -0.736249 7.5
      vertex 33.5052 -1.92701 7.5
    endloop
  endfacet
  facet normal -0 0 1
    outer loop
      vertex 31.618 -1.17557 7.5
      vertex 33.2361 -2.35114 7.5
      vertex 31.7526 -0.963507 7.5
    endloop
  endfacet
  facet normal -0 0 1
    outer loop
      vertex 31.4579 -1.36909 7.5
      vertex 32.9159 -2.73819 7.5
      vertex 31.618 -1.17557 7.5
    endloop
  endfacet
  facet normal 0 0 1
    outer loop
      vertex 32.9159 -2.73819 7.5
      vertex 31.4579 -1.36909 7.5
      vertex 32.5497 -3.08205 7.5
    endloop
  endfacet
  facet normal -0 0 1
    outer loop
      vertex 31.2748 -1.54103 7.5
      vertex 32.5497 -3.08205 7.5
      vertex 31.4579 -1.36909 7.5
    endloop
  endfacet
  facet normal 0 0 1
    outer loop
      vertex 32.5497 -3.08205 7.5
      vertex 31.2748 -1.54103 7.5
      vertex 32.1433 -3.37731 7.5
    endloop
  endfacet
  facet normal -0 0 1
    outer loop
      vertex 31.0717 -1.68865 7.5
      vertex 32.1433 -3.37731 7.5
      vertex 31.2748 -1.54103 7.5
    endloop
  endfacet
  facet normal 0 0 1
    outer loop
      vertex 32.1433 -3.37731 7.5
      vertex 31.0717 -1.68865 7.5
      vertex 31.7031 -3.61931 7.5
    endloop
  endfacet
  facet normal -0 0 1
    outer loop
      vertex 30.8516 -1.80965 7.5
      vertex 31.7031 -3.61931 7.5
      vertex 31.0717 -1.68865 7.5
    endloop
  endfacet
  facet normal 0 0 1
    outer loop
      vertex 31.7031 -3.61931 7.5
      vertex 30.8516 -1.80965 7.5
      vertex 31.2361 -3.80423 7.5
    endloop
  endfacet
  facet normal -0 0 1
    outer loop
      vertex 30.618 -1.90211 7.5
      vertex 31.2361 -3.80423 7.5
      vertex 30.8516 -1.80965 7.5
    endloop
  endfacet
  facet normal 0 0 1
    outer loop
      vertex 31.2361 -3.80423 7.5
      vertex 30.618 -1.90211 7.5
      vertex 30.7495 -3.92915 7.5
    endloop
  endfacet
  facet normal -0 0 1
    outer loop
      vertex 30.3748 -1.96457 7.5
      vertex 30.7495 -3.92915 7.5
      vertex 30.618 -1.90211 7.5
    endloop
  endfacet
  facet normal 0 0 1
    outer loop
      vertex 30.3748 -1.96457 7.5
      vertex 30.2512 -3.99211 7.5
      vertex 30.7495 -3.92915 7.5
    endloop
  endfacet
  facet normal -0 0 1
    outer loop
      vertex 30.1256 -1.99605 7.5
      vertex 30.2512 -3.99211 7.5
      vertex 30.3748 -1.96457 7.5
    endloop
  endfacet
  facet normal 0 0 1
    outer loop
      vertex 30.1256 -1.99605 7.5
      vertex 30 -3.99211 7.5
      vertex 30.2512 -3.99211 7.5
    endloop
  endfacet
  facet normal -0 0 1
    outer loop
      vertex 29.8744 -1.99605 7.5
      vertex 30 -3.99211 7.5
      vertex 30.1256 -1.99605 7.5
    endloop
  endfacet
  facet normal 0 0 1
    outer loop
      vertex 29.6252 -1.96457 7.5
      vertex 30 -3.99211 7.5
      vertex 29.8744 -1.99605 7.5
    endloop
  endfacet
  facet normal 0 0 1
    outer loop
      vertex 29.382 -1.90211 7.5
      vertex 30 -3.99211 7.5
      vertex 29.6252 -1.96457 7.5
    endloop
  endfacet
  facet normal 0 0 1
    outer loop
      vertex 29.1484 -1.80965 7.5
      vertex 30 -3.99211 7.5
      vertex 29.382 -1.90211 7.5
    endloop
  endfacet
  facet normal 0 0 1
    outer loop
      vertex 28.9283 -1.68865 7.5
      vertex 30 -3.99211 7.5
      vertex 29.1484 -1.80965 7.5
    endloop
  endfacet
  facet normal 0 0 1
    outer loop
      vertex 28.7252 -1.54103 7.5
      vertex 30 -3.99211 7.5
      vertex 28.9283 -1.68865 7.5
    endloop
  endfacet
  facet normal 0 0 1
    outer loop
      vertex 30 -3.99211 7.5
      vertex 28.7252 -1.54103 7.5
      vertex 30 -4.5 7.5
    endloop
  endfacet
  facet normal 0 0 1
    outer loop
      vertex 23 -4.5 7.5
      vertex 28.7252 -1.54103 7.5
      vertex 28.5421 -1.36909 7.5
    endloop
  endfacet
  facet normal 0 0 1
    outer loop
      vertex 23 -4.5 7.5
      vertex 28.5421 -1.36909 7.5
      vertex 28.382 -1.17557 7.5
    endloop
  endfacet
  facet normal 0 0 1
    outer loop
      vertex 23 -4.5 7.5
      vertex 28.382 -1.17557 7.5
      vertex 28.2474 -0.963507 7.5
    endloop
  endfacet
  facet normal -0 0 1
    outer loop
      vertex 23 0 7.5
      vertex 28.0158 -0.250666 7.5
      vertex 28 0 7.5
    endloop
  endfacet
  facet normal 0 0 1
    outer loop
      vertex 23 0 7.5
      vertex 28.0628 -0.497379 7.5
      vertex 28.0158 -0.250666 7.5
    endloop
  endfacet
  facet normal 0 0 1
    outer loop
      vertex 23 0 7.5
      vertex 28.1404 -0.736249 7.5
      vertex 28.0628 -0.497379 7.5
    endloop
  endfacet
  facet normal 0 0 1
    outer loop
      vertex 23 0 7.5
      vertex 28.2474 -0.963507 7.5
      vertex 28.1404 -0.736249 7.5
    endloop
  endfacet
  facet normal 0 0 1
    outer loop
      vertex 23 -4.5 7.5
      vertex 28.2474 -0.963507 7.5
      vertex 23 0 7.5
    endloop
  endfacet
  facet normal 0 0 1
    outer loop
      vertex 28.7252 -1.54103 7.5
      vertex 23 -4.5 7.5
      vertex 30 -4.5 7.5
    endloop
  endfacet
  facet normal 1 -0 0
    outer loop
      vertex 37 -4.5 -1.875
      vertex 37 0 -7.5
      vertex 37 0 -1.875
    endloop
  endfacet
  facet normal 1 0 0
    outer loop
      vertex 37 0 -7.5
      vertex 37 -4.5 -1.875
      vertex 37 -4.5 -7.5
    endloop
  endfacet
  facet normal 0 0 1
    outer loop
      vertex 33.9685 -0.501332 -1.875
      vertex 37 0 -1.875
      vertex 34 0 -1.875
    endloop
  endfacet
  facet normal 0 0 1
    outer loop
      vertex 33.8743 -0.994759 -1.875
      vertex 37 0 -1.875
      vertex 33.9685 -0.501332 -1.875
    endloop
  endfacet
  facet normal 0 0 1
    outer loop
      vertex 33.7191 -1.4725 -1.875
      vertex 37 0 -1.875
      vertex 33.8743 -0.994759 -1.875
    endloop
  endfacet
  facet normal 0 0 1
    outer loop
      vertex 37 0 -1.875
      vertex 33.7191 -1.4725 -1.875
      vertex 37 -4.5 -1.875
    endloop
  endfacet
  facet normal -0 0 1
    outer loop
      vertex 33.5052 -1.92701 -1.875
      vertex 37 -4.5 -1.875
      vertex 33.7191 -1.4725 -1.875
    endloop
  endfacet
  facet normal -0 0 1
    outer loop
      vertex 33.2361 -2.35114 -1.875
      vertex 37 -4.5 -1.875
      vertex 33.5052 -1.92701 -1.875
    endloop
  endfacet
  facet normal -0 0 1
    outer loop
      vertex 32.9159 -2.73819 -1.875
      vertex 37 -4.5 -1.875
      vertex 33.2361 -2.35114 -1.875
    endloop
  endfacet
  facet normal -0 0 1
    outer loop
      vertex 32.5497 -3.08205 -1.875
      vertex 37 -4.5 -1.875
      vertex 32.9159 -2.73819 -1.875
    endloop
  endfacet
  facet normal -0 0 1
    outer loop
      vertex 32.1433 -3.37731 -1.875
      vertex 37 -4.5 -1.875
      vertex 32.5497 -3.08205 -1.875
    endloop
  endfacet
  facet normal -0 0 1
    outer loop
      vertex 31.7031 -3.61931 -1.875
      vertex 37 -4.5 -1.875
      vertex 32.1433 -3.37731 -1.875
    endloop
  endfacet
  facet normal -0 0 1
    outer loop
      vertex 31.2361 -3.80423 -1.875
      vertex 37 -4.5 -1.875
      vertex 31.7031 -3.61931 -1.875
    endloop
  endfacet
  facet normal -0 0 1
    outer loop
      vertex 30.7495 -3.92915 -1.875
      vertex 37 -4.5 -1.875
      vertex 31.2361 -3.80423 -1.875
    endloop
  endfacet
  facet normal -0 0 1
    outer loop
      vertex 30.2512 -3.99211 -1.875
      vertex 37 -4.5 -1.875
      vertex 30.7495 -3.92915 -1.875
    endloop
  endfacet
  facet normal -0 0 1
    outer loop
      vertex 29.7488 -3.99211 -1.875
      vertex 37 -4.5 -1.875
      vertex 30.2512 -3.99211 -1.875
    endloop
  endfacet
  facet normal -0 0 1
    outer loop
      vertex 23 0 -1.875
      vertex 26.0315 -0.501332 -1.875
      vertex 26 0 -1.875
    endloop
  endfacet
  facet normal 0 0 1
    outer loop
      vertex 23 0 -1.875
      vertex 26.1257 -0.994759 -1.875
      vertex 26.0315 -0.501332 -1.875
    endloop
  endfacet
  facet normal 0 0 1
    outer loop
      vertex 23 0 -1.875
      vertex 26.2809 -1.4725 -1.875
      vertex 26.1257 -0.994759 -1.875
    endloop
  endfacet
  facet normal 0 0 1
    outer loop
      vertex 23 -4.5 -1.875
      vertex 26.2809 -1.4725 -1.875
      vertex 23 0 -1.875
    endloop
  endfacet
  facet normal 0 0 1
    outer loop
      vertex 26.2809 -1.4725 -1.875
      vertex 23 -4.5 -1.875
      vertex 26.4948 -1.92701 -1.875
    endloop
  endfacet
  facet normal 0 0 1
    outer loop
      vertex 26.4948 -1.92701 -1.875
      vertex 23 -4.5 -1.875
      vertex 26.7639 -2.35114 -1.875
    endloop
  endfacet
  facet normal 0 0 1
    outer loop
      vertex 26.7639 -2.35114 -1.875
      vertex 23 -4.5 -1.875
      vertex 27.0841 -2.73819 -1.875
    endloop
  endfacet
  facet normal 0 0 1
    outer loop
      vertex 27.0841 -2.73819 -1.875
      vertex 23 -4.5 -1.875
      vertex 27.4503 -3.08205 -1.875
    endloop
  endfacet
  facet normal 0 0 1
    outer loop
      vertex 29.7488 -3.99211 -1.875
      vertex 23 -4.5 -1.875
      vertex 37 -4.5 -1.875
    endloop
  endfacet
  facet normal 0 0 1
    outer loop
      vertex 29.2505 -3.92915 -1.875
      vertex 23 -4.5 -1.875
      vertex 29.7488 -3.99211 -1.875
    endloop
  endfacet
  facet normal 0 0 1
    outer loop
      vertex 28.7639 -3.80423 -1.875
      vertex 23 -4.5 -1.875
      vertex 29.2505 -3.92915 -1.875
    endloop
  endfacet
  facet normal 0 0 1
    outer loop
      vertex 28.2969 -3.61931 -1.875
      vertex 23 -4.5 -1.875
      vertex 28.7639 -3.80423 -1.875
    endloop
  endfacet
  facet normal 0 0 1
    outer loop
      vertex 27.8567 -3.37731 -1.875
      vertex 23 -4.5 -1.875
      vertex 28.2969 -3.61931 -1.875
    endloop
  endfacet
  facet normal 0 0 1
    outer loop
      vertex 27.4503 -3.08205 -1.875
      vertex 23 -4.5 -1.875
      vertex 27.8567 -3.37731 -1.875
    endloop
  endfacet
  facet normal 0 -1 0
    outer loop
      vertex 23 -4.5 -7.5
      vertex 37 -4.5 -1.875
      vertex 23 -4.5 -1.875
    endloop
  endfacet
  facet normal 0 -1 -0
    outer loop
      vertex 37 -4.5 -1.875
      vertex 23 -4.5 -7.5
      vertex 37 -4.5 -7.5
    endloop
  endfacet
  facet normal -1 0 0
    outer loop
      vertex 23 -4.5 1.875
      vertex 23 0 7.5
      vertex 23 0 1.875
    endloop
  endfacet
  facet normal -1 -0 0
    outer loop
      vertex 23 0 7.5
      vertex 23 -4.5 1.875
      vertex 23 -4.5 7.5
    endloop
  endfacet
  facet normal 0 0 -1
    outer loop
      vertex 30 -4.5 1.875
      vertex 29.7488 -3.99211 1.875
      vertex 30 -3.99211 1.875
    endloop
  endfacet
  facet normal 0 0 -1
    outer loop
      vertex 30 -4.5 1.875
      vertex 29.2505 -3.92915 1.875
      vertex 29.7488 -3.99211 1.875
    endloop
  endfacet
  facet normal 0 0 -1
    outer loop
      vertex 30 -4.5 1.875
      vertex 28.7639 -3.80423 1.875
      vertex 29.2505 -3.92915 1.875
    endloop
  endfacet
  facet normal 0 0 -1
    outer loop
      vertex 23 -4.5 1.875
      vertex 28.7639 -3.80423 1.875
      vertex 30 -4.5 1.875
    endloop
  endfacet
  facet normal -0 0 -1
    outer loop
      vertex 28.7639 -3.80423 1.875
      vertex 23 -4.5 1.875
      vertex 28.2969 -3.61931 1.875
    endloop
  endfacet
  facet normal 0 0 -1
    outer loop
      vertex 23 -4.5 1.875
      vertex 27.8567 -3.37731 1.875
      vertex 28.2969 -3.61931 1.875
    endloop
  endfacet
  facet normal 0 0 -1
    outer loop
      vertex 23 -4.5 1.875
      vertex 27.4503 -3.08205 1.875
      vertex 27.8567 -3.37731 1.875
    endloop
  endfacet
  facet normal 0 0 -1
    outer loop
      vertex 23 -4.5 1.875
      vertex 27.0841 -2.73819 1.875
      vertex 27.4503 -3.08205 1.875
    endloop
  endfacet
  facet normal 0 0 -1
    outer loop
      vertex 23 -4.5 1.875
      vertex 26.7639 -2.35114 1.875
      vertex 27.0841 -2.73819 1.875
    endloop
  endfacet
  facet normal 0 0 -1
    outer loop
      vertex 23 -4.5 1.875
      vertex 26.4948 -1.92701 1.875
      vertex 26.7639 -2.35114 1.875
    endloop
  endfacet
  facet normal 0 0 -1
    outer loop
      vertex 23 -4.5 1.875
      vertex 26.2809 -1.4725 1.875
      vertex 26.4948 -1.92701 1.875
    endloop
  endfacet
  facet normal 0 0 -1
    outer loop
      vertex 23 0 1.875
      vertex 26.2809 -1.4725 1.875
      vertex 23 -4.5 1.875
    endloop
  endfacet
  facet normal 0 0 -1
    outer loop
      vertex 26.2809 -1.4725 1.875
      vertex 23 0 1.875
      vertex 26.1257 -0.994759 1.875
    endloop
  endfacet
  facet normal 0 0 -1
    outer loop
      vertex 26.1257 -0.994759 1.875
      vertex 23 0 1.875
      vertex 26.0315 -0.501332 1.875
    endloop
  endfacet
  facet normal 0 0 -1
    outer loop
      vertex 26.0315 -0.501332 1.875
      vertex 23 0 1.875
      vertex 26 0 1.875
    endloop
  endfacet
  facet normal 1 -0 0
    outer loop
      vertex 30 -4.5 7.5
      vertex 30 -3.99211 1.875
      vertex 30 -3.99211 7.5
    endloop
  endfacet
  facet normal 1 0 0
    outer loop
      vertex 30 -3.99211 1.875
      vertex 30 -4.5 7.5
      vertex 30 -4.5 1.875
    endloop
  endfacet
  facet normal 0 -1 0
    outer loop
      vertex 23 -4.5 1.875
      vertex 30 -4.5 7.5
      vertex 23 -4.5 7.5
    endloop
  endfacet
  facet normal 0 -1 -0
    outer loop
      vertex 30 -4.5 7.5
      vertex 23 -4.5 1.875
      vertex 30 -4.5 1.875
    endloop
  endfacet
  facet normal -1 0 0
    outer loop
      vertex 23 -4.5 -7.5
      vertex 23 0 -1.875
      vertex 23 0 -7.5
    endloop
  endfacet
  facet normal -1 -0 0
    outer loop
      vertex 23 0 -1.875
      vertex 23 -4.5 -7.5
      vertex 23 -4.5 -1.875
    endloop
  endfacet
  facet normal 0.951072 0.308968 0
    outer loop
      vertex 28.1404 -0.736249 7.5
      vertex 28.0628 -0.497379 -7.5
      vertex 28.0628 -0.497379 7.5
    endloop
  endfacet
  facet normal 0.951072 0.308968 0
    outer loop
      vertex 28.0628 -0.497379 -7.5
      vertex 28.1404 -0.736249 7.5
      vertex 28.1404 -0.736249 -7.5
    endloop
  endfacet
  facet normal -0.844291 0.535886 0
    outer loop
      vertex 31.618 -1.17557 -7.5
      vertex 31.7526 -0.963507 7.5
      vertex 31.7526 -0.963507 -7.5
    endloop
  endfacet
  facet normal -0.844291 0.535886 0
    outer loop
      vertex 31.7526 -0.963507 7.5
      vertex 31.618 -1.17557 -7.5
      vertex 31.618 -1.17557 7.5
    endloop
  endfacet
  facet normal -0.368026 0.929816 0
    outer loop
      vertex 30.8516 -1.80965 -7.5
      vertex 30.618 -1.90211 7.5
      vertex 30.8516 -1.80965 7.5
    endloop
  endfacet
  facet normal -0.368026 0.929816 0
    outer loop
      vertex 30.618 -1.90211 7.5
      vertex 30.8516 -1.80965 -7.5
      vertex 30.618 -1.90211 -7.5
    endloop
  endfacet
  facet normal 0.368026 0.929816 -0
    outer loop
      vertex 29.382 -1.90211 -7.5
      vertex 29.1484 -1.80965 7.5
      vertex 29.382 -1.90211 7.5
    endloop
  endfacet
  facet normal 0.368026 0.929816 0
    outer loop
      vertex 29.1484 -1.80965 7.5
      vertex 29.382 -1.90211 -7.5
      vertex 29.1484 -1.80965 -7.5
    endloop
  endfacet
  facet normal 0.904734 0.425976 0
    outer loop
      vertex 28.2474 -0.963507 7.5
      vertex 28.1404 -0.736249 -7.5
      vertex 28.1404 -0.736249 7.5
    endloop
  endfacet
  facet normal 0.904734 0.425976 0
    outer loop
      vertex 28.1404 -0.736249 -7.5
      vertex 28.2474 -0.963507 7.5
      vertex 28.2474 -0.963507 -7.5
    endloop
  endfacet
  facet normal -0.684542 0.728973 0
    outer loop
      vertex 31.4579 -1.36909 -7.5
      vertex 31.2748 -1.54103 7.5
      vertex 31.4579 -1.36909 7.5
    endloop
  endfacet
  facet normal -0.684542 0.728973 0
    outer loop
      vertex 31.2748 -1.54103 7.5
      vertex 31.4579 -1.36909 -7.5
      vertex 31.2748 -1.54103 -7.5
    endloop
  endfacet
  facet normal 0 1 -0
    outer loop
      vertex 30.1256 -1.99605 -7.5
      vertex 29.8744 -1.99605 7.5
      vertex 30.1256 -1.99605 7.5
    endloop
  endfacet
  facet normal 0 1 0
    outer loop
      vertex 29.8744 -1.99605 7.5
      vertex 30.1256 -1.99605 -7.5
      vertex 29.8744 -1.99605 -7.5
    endloop
  endfacet
  facet normal -0.58794 0.808905 0
    outer loop
      vertex 31.2748 -1.54103 -7.5
      vertex 31.0717 -1.68865 7.5
      vertex 31.2748 -1.54103 7.5
    endloop
  endfacet
  facet normal -0.58794 0.808905 0
    outer loop
      vertex 31.0717 -1.68865 7.5
      vertex 31.2748 -1.54103 -7.5
      vertex 31.0717 -1.68865 -7.5
    endloop
  endfacet
  facet normal 0.982333 0.187139 0
    outer loop
      vertex 28.0628 -0.497379 7.5
      vertex 28.0158 -0.250666 -7.5
      vertex 28.0158 -0.250666 7.5
    endloop
  endfacet
  facet normal 0.982333 0.187139 0
    outer loop
      vertex 28.0158 -0.250666 -7.5
      vertex 28.0628 -0.497379 7.5
      vertex 28.0628 -0.497379 -7.5
    endloop
  endfacet
  facet normal 0.770501 0.637439 0
    outer loop
      vertex 28.5421 -1.36909 7.5
      vertex 28.382 -1.17557 -7.5
      vertex 28.382 -1.17557 7.5
    endloop
  endfacet
  facet normal 0.770501 0.637439 0
    outer loop
      vertex 28.382 -1.17557 -7.5
      vertex 28.5421 -1.36909 7.5
      vertex 28.5421 -1.36909 -7.5
    endloop
  endfacet
  facet normal 0.481751 0.876308 -0
    outer loop
      vertex 29.1484 -1.80965 -7.5
      vertex 28.9283 -1.68865 7.5
      vertex 29.1484 -1.80965 7.5
    endloop
  endfacet
  facet normal 0.481751 0.876308 0
    outer loop
      vertex 28.9283 -1.68865 7.5
      vertex 29.1484 -1.80965 -7.5
      vertex 28.9283 -1.68865 -7.5
    endloop
  endfacet
  facet normal 0.248753 0.968567 -0
    outer loop
      vertex 29.6252 -1.96457 -7.5
      vertex 29.382 -1.90211 7.5
      vertex 29.6252 -1.96457 7.5
    endloop
  endfacet
  facet normal 0.248753 0.968567 0
    outer loop
      vertex 29.382 -1.90211 7.5
      vertex 29.6252 -1.96457 -7.5
      vertex 29.382 -1.90211 -7.5
    endloop
  endfacet
  facet normal -0.998019 0.0629072 0
    outer loop
      vertex 31.9842 -0.250666 -7.5
      vertex 32 0 7.5
      vertex 32 0 -7.5
    endloop
  endfacet
  facet normal -0.998019 0.0629072 0
    outer loop
      vertex 32 0 7.5
      vertex 31.9842 -0.250666 -7.5
      vertex 31.9842 -0.250666 7.5
    endloop
  endfacet
  facet normal -0.770501 0.637439 0
    outer loop
      vertex 31.4579 -1.36909 -7.5
      vertex 31.618 -1.17557 7.5
      vertex 31.618 -1.17557 -7.5
    endloop
  endfacet
  facet normal -0.770501 0.637439 0
    outer loop
      vertex 31.618 -1.17557 7.5
      vertex 31.4579 -1.36909 -7.5
      vertex 31.4579 -1.36909 7.5
    endloop
  endfacet
  facet normal -0.248753 0.968567 0
    outer loop
      vertex 30.618 -1.90211 -7.5
      vertex 30.3748 -1.96457 7.5
      vertex 30.618 -1.90211 7.5
    endloop
  endfacet
  facet normal -0.248753 0.968567 0
    outer loop
      vertex 30.3748 -1.96457 7.5
      vertex 30.618 -1.90211 -7.5
      vertex 30.3748 -1.96457 -7.5
    endloop
  endfacet
  facet normal -0.125328 0.992115 0
    outer loop
      vertex 30.3748 -1.96457 -7.5
      vertex 30.1256 -1.99605 7.5
      vertex 30.3748 -1.96457 7.5
    endloop
  endfacet
  facet normal -0.125328 0.992115 0
    outer loop
      vertex 30.1256 -1.99605 7.5
      vertex 30.3748 -1.96457 -7.5
      vertex 30.1256 -1.99605 -7.5
    endloop
  endfacet
  facet normal -0.481751 0.876308 0
    outer loop
      vertex 31.0717 -1.68865 -7.5
      vertex 30.8516 -1.80965 7.5
      vertex 31.0717 -1.68865 7.5
    endloop
  endfacet
  facet normal -0.481751 0.876308 0
    outer loop
      vertex 30.8516 -1.80965 7.5
      vertex 31.0717 -1.68865 -7.5
      vertex 30.8516 -1.80965 -7.5
    endloop
  endfacet
  facet normal 0.998019 0.0629072 0
    outer loop
      vertex 28.0158 -0.250666 7.5
      vertex 28 0 -7.5
      vertex 28 0 7.5
    endloop
  endfacet
  facet normal 0.998019 0.0629072 0
    outer loop
      vertex 28 0 -7.5
      vertex 28.0158 -0.250666 7.5
      vertex 28.0158 -0.250666 -7.5
    endloop
  endfacet
  facet normal 0.844291 0.535886 0
    outer loop
      vertex 28.382 -1.17557 7.5
      vertex 28.2474 -0.963507 -7.5
      vertex 28.2474 -0.963507 7.5
    endloop
  endfacet
  facet normal 0.844291 0.535886 0
    outer loop
      vertex 28.2474 -0.963507 -7.5
      vertex 28.382 -1.17557 7.5
      vertex 28.382 -1.17557 -7.5
    endloop
  endfacet
  facet normal 0.125328 0.992115 -0
    outer loop
      vertex 29.8744 -1.99605 -7.5
      vertex 29.6252 -1.96457 7.5
      vertex 29.8744 -1.99605 7.5
    endloop
  endfacet
  facet normal 0.125328 0.992115 0
    outer loop
      vertex 29.6252 -1.96457 7.5
      vertex 29.8744 -1.99605 -7.5
      vertex 29.6252 -1.96457 -7.5
    endloop
  endfacet
  facet normal 0.58794 0.808905 -0
    outer loop
      vertex 28.9283 -1.68865 -7.5
      vertex 28.7252 -1.54103 7.5
      vertex 28.9283 -1.68865 7.5
    endloop
  endfacet
  facet normal 0.58794 0.808905 0
    outer loop
      vertex 28.7252 -1.54103 7.5
      vertex 28.9283 -1.68865 -7.5
      vertex 28.7252 -1.54103 -7.5
    endloop
  endfacet
  facet normal 0.684542 0.728973 -0
    outer loop
      vertex 28.7252 -1.54103 -7.5
      vertex 28.5421 -1.36909 7.5
      vertex 28.7252 -1.54103 7.5
    endloop
  endfacet
  facet normal 0.684542 0.728973 0
    outer loop
      vertex 28.5421 -1.36909 7.5
      vertex 28.7252 -1.54103 -7.5
      vertex 28.5421 -1.36909 -7.5
    endloop
  endfacet
  facet normal -0.904734 0.425976 0
    outer loop
      vertex 31.7526 -0.963507 -7.5
      vertex 31.8596 -0.736249 7.5
      vertex 31.8596 -0.736249 -7.5
    endloop
  endfacet
  facet normal -0.904734 0.425976 0
    outer loop
      vertex 31.8596 -0.736249 7.5
      vertex 31.7526 -0.963507 -7.5
      vertex 31.7526 -0.963507 7.5
    endloop
  endfacet
  facet normal -0.951072 0.308968 0
    outer loop
      vertex 31.8596 -0.736249 -7.5
      vertex 31.9372 -0.497379 7.5
      vertex 31.9372 -0.497379 -7.5
    endloop
  endfacet
  facet normal -0.951072 0.308968 0
    outer loop
      vertex 31.9372 -0.497379 7.5
      vertex 31.8596 -0.736249 -7.5
      vertex 31.8596 -0.736249 7.5
    endloop
  endfacet
  facet normal -0.982333 0.187139 0
    outer loop
      vertex 31.9372 -0.497379 -7.5
      vertex 31.9842 -0.250666 7.5
      vertex 31.9842 -0.250666 -7.5
    endloop
  endfacet
  facet normal -0.982333 0.187139 0
    outer loop
      vertex 31.9842 -0.250666 7.5
      vertex 31.9372 -0.497379 -7.5
      vertex 31.9372 -0.497379 7.5
    endloop
  endfacet
  facet normal 0.998027 -0.0627883 0
    outer loop
      vertex 3.96846 -0.501332 1.875
      vertex 4 0 -7.5
      vertex 4 0 1.875
    endloop
  endfacet
  facet normal 0.998027 -0.0627883 0
    outer loop
      vertex 4 0 -7.5
      vertex 3.96846 -0.501332 1.875
      vertex 3.96846 -0.501332 -7.5
    endloop
  endfacet
  facet normal 0.368128 -0.929775 0
    outer loop
      vertex 1.23607 -3.80423 -7.5
      vertex 1.70312 -3.61931 1.875
      vertex 1.23607 -3.80423 1.875
    endloop
  endfacet
  facet normal 0.368128 -0.929775 0
    outer loop
      vertex 1.70312 -3.61931 1.875
      vertex 1.23607 -3.80423 -7.5
      vertex 1.70312 -3.61931 -7.5
    endloop
  endfacet
  facet normal 0.951061 -0.309004 0
    outer loop
      vertex 3.71911 -1.4725 1.875
      vertex 3.87433 -0.994759 -7.5
      vertex 3.87433 -0.994759 1.875
    endloop
  endfacet
  facet normal 0.951061 -0.309004 0
    outer loop
      vertex 3.87433 -0.994759 -7.5
      vertex 3.71911 -1.4725 1.875
      vertex 3.71911 -1.4725 -7.5
    endloop
  endfacet
  facet normal -0.125337 -0.992114 0
    outer loop
      vertex -0.749525 -3.92915 -1.875
      vertex -0.251162 -3.99211 1.875
      vertex -0.749525 -3.92915 1.875
    endloop
  endfacet
  facet normal -0.125337 -0.992114 -0
    outer loop
      vertex -0.251162 -3.99211 1.875
      vertex -0.749525 -3.92915 -1.875
      vertex -0.251162 -3.99211 -1.875
    endloop
  endfacet
  facet normal 0.248683 -0.968585 0
    outer loop
      vertex 0.749525 -3.92915 -7.5
      vertex 1.23607 -3.80423 1.875
      vertex 0.749525 -3.92915 1.875
    endloop
  endfacet
  facet normal 0.248683 -0.968585 0
    outer loop
      vertex 1.23607 -3.80423 1.875
      vertex 0.749525 -3.92915 -7.5
      vertex 1.23607 -3.80423 -7.5
    endloop
  endfacet
  facet normal 0.982286 -0.187389 0
    outer loop
      vertex 3.87433 -0.994759 1.875
      vertex 3.96846 -0.501332 -7.5
      vertex 3.96846 -0.501332 1.875
    endloop
  endfacet
  facet normal 0.982286 -0.187389 0
    outer loop
      vertex 3.96846 -0.501332 -7.5
      vertex 3.87433 -0.994759 1.875
      vertex 3.87433 -0.994759 -7.5
    endloop
  endfacet
  facet normal -0.248683 -0.968585 0
    outer loop
      vertex -1.23607 -3.80423 -1.875
      vertex -0.749525 -3.92915 1.875
      vertex -1.23607 -3.80423 1.875
    endloop
  endfacet
  facet normal -0.248683 -0.968585 -0
    outer loop
      vertex -0.749525 -3.92915 1.875
      vertex -1.23607 -3.80423 -1.875
      vertex -0.749525 -3.92915 -1.875
    endloop
  endfacet
  facet normal 0.125337 -0.992114 0
    outer loop
      vertex 0.251162 -3.99211 -7.5
      vertex 0.749525 -3.92915 1.875
      vertex 0.251162 -3.99211 1.875
    endloop
  endfacet
  facet normal 0.125337 -0.992114 0
    outer loop
      vertex 0.749525 -3.92915 1.875
      vertex 0.251162 -3.99211 -7.5
      vertex 0.749525 -3.92915 -7.5
    endloop
  endfacet
  facet normal 0 0 1
    outer loop
      vertex 1.98423 -0.250666 7.5
      vertex 7 0 7.5
      vertex 2 0 7.5
    endloop
  endfacet
  facet normal 0 0 1
    outer loop
      vertex 1.93717 -0.497379 7.5
      vertex 7 0 7.5
      vertex 1.98423 -0.250666 7.5
    endloop
  endfacet
  facet normal 0 0 1
    outer loop
      vertex 1.85955 -0.736249 7.5
      vertex 7 0 7.5
      vertex 1.93717 -0.497379 7.5
    endloop
  endfacet
  facet normal 0 0 1
    outer loop
      vertex 1.75261 -0.963507 7.5
      vertex 7 0 7.5
      vertex 1.85955 -0.736249 7.5
    endloop
  endfacet
  facet normal 0 0 1
    outer loop
      vertex 7 0 7.5
      vertex 1.75261 -0.963507 7.5
      vertex 7 -4.5 7.5
    endloop
  endfacet
  facet normal -0 0 1
    outer loop
      vertex 1.61803 -1.17557 7.5
      vertex 7 -4.5 7.5
      vertex 1.75261 -0.963507 7.5
    endloop
  endfacet
  facet normal -0 0 1
    outer loop
      vertex 1.45794 -1.36909 7.5
      vertex 7 -4.5 7.5
      vertex 1.61803 -1.17557 7.5
    endloop
  endfacet
  facet normal -0 0 1
    outer loop
      vertex 1.27485 -1.54103 7.5
      vertex 7 -4.5 7.5
      vertex 1.45794 -1.36909 7.5
    endloop
  endfacet
  facet normal -0 0 1
    outer loop
      vertex 1.07165 -1.68865 7.5
      vertex 7 -4.5 7.5
      vertex 1.27485 -1.54103 7.5
    endloop
  endfacet
  facet normal -0 0 1
    outer loop
      vertex 0.851558 -1.80965 7.5
      vertex 7 -4.5 7.5
      vertex 1.07165 -1.68865 7.5
    endloop
  endfacet
  facet normal -0 0 1
    outer loop
      vertex 0.618033 -1.90211 7.5
      vertex 7 -4.5 7.5
      vertex 0.851558 -1.80965 7.5
    endloop
  endfacet
  facet normal -0 0 1
    outer loop
      vertex 0.374763 -1.96457 7.5
      vertex 7 -4.5 7.5
      vertex 0.618033 -1.90211 7.5
    endloop
  endfacet
  facet normal -0 0 1
    outer loop
      vertex 0.125581 -1.99605 7.5
      vertex 7 -4.5 7.5
      vertex 0.374763 -1.96457 7.5
    endloop
  endfacet
  facet normal -0 0 1
    outer loop
      vertex -0.125581 -1.99605 7.5
      vertex 7 -4.5 7.5
      vertex 0.125581 -1.99605 7.5
    endloop
  endfacet
  facet normal 0 0 1
    outer loop
      vertex -7 -4.5 7.5
      vertex -0.125581 -1.99605 7.5
      vertex -0.374763 -1.96457 7.5
    endloop
  endfacet
  facet normal 0 0 1
    outer loop
      vertex -7 -4.5 7.5
      vertex -0.374763 -1.96457 7.5
      vertex -0.618033 -1.90211 7.5
    endloop
  endfacet
  facet normal -0 0 1
    outer loop
      vertex -7 0 7.5
      vertex -1.98423 -0.250666 7.5
      vertex -2 0 7.5
    endloop
  endfacet
  facet normal 0 0 1
    outer loop
      vertex -7 0 7.5
      vertex -1.93717 -0.497379 7.5
      vertex -1.98423 -0.250666 7.5
    endloop
  endfacet
  facet normal 0 0 1
    outer loop
      vertex -7 0 7.5
      vertex -1.85955 -0.736249 7.5
      vertex -1.93717 -0.497379 7.5
    endloop
  endfacet
  facet normal 0 0 1
    outer loop
      vertex -7 0 7.5
      vertex -1.75261 -0.963507 7.5
      vertex -1.85955 -0.736249 7.5
    endloop
  endfacet
  facet normal 0 0 1
    outer loop
      vertex -7 -4.5 7.5
      vertex -1.75261 -0.963507 7.5
      vertex -7 0 7.5
    endloop
  endfacet
  facet normal 0 0 1
    outer loop
      vertex -1.75261 -0.963507 7.5
      vertex -7 -4.5 7.5
      vertex -1.61803 -1.17557 7.5
    endloop
  endfacet
  facet normal 0 0 1
    outer loop
      vertex -1.61803 -1.17557 7.5
      vertex -7 -4.5 7.5
      vertex -1.45794 -1.36909 7.5
    endloop
  endfacet
  facet normal 0 0 1
    outer loop
      vertex -1.45794 -1.36909 7.5
      vertex -7 -4.5 7.5
      vertex -1.27485 -1.54103 7.5
    endloop
  endfacet
  facet normal 0 0 1
    outer loop
      vertex -1.27485 -1.54103 7.5
      vertex -7 -4.5 7.5
      vertex -1.07165 -1.68865 7.5
    endloop
  endfacet
  facet normal 0 0 1
    outer loop
      vertex -1.07165 -1.68865 7.5
      vertex -7 -4.5 7.5
      vertex -0.851558 -1.80965 7.5
    endloop
  endfacet
  facet normal 0 0 1
    outer loop
      vertex -0.851558 -1.80965 7.5
      vertex -7 -4.5 7.5
      vertex -0.618033 -1.90211 7.5
    endloop
  endfacet
  facet normal 0 0 1
    outer loop
      vertex -0.125581 -1.99605 7.5
      vertex -7 -4.5 7.5
      vertex 7 -4.5 7.5
    endloop
  endfacet
  facet normal 0.481759 -0.876304 0
    outer loop
      vertex 1.70312 -3.61931 -7.5
      vertex 2.14331 -3.37731 1.875
      vertex 1.70312 -3.61931 1.875
    endloop
  endfacet
  facet normal 0.481759 -0.876304 0
    outer loop
      vertex 2.14331 -3.37731 1.875
      vertex 1.70312 -3.61931 -7.5
      vertex 2.14331 -3.37731 -7.5
    endloop
  endfacet
  facet normal 0.770509 -0.637429 0
    outer loop
      vertex 2.91587 -2.73819 1.875
      vertex 3.23607 -2.35114 -7.5
      vertex 3.23607 -2.35114 1.875
    endloop
  endfacet
  facet normal 0.770509 -0.637429 0
    outer loop
      vertex 3.23607 -2.35114 -7.5
      vertex 2.91587 -2.73819 1.875
      vertex 2.91587 -2.73819 -7.5
    endloop
  endfacet
  facet normal 0.844329 -0.535825 0
    outer loop
      vertex 3.23607 -2.35114 1.875
      vertex 3.50523 -1.92701 -7.5
      vertex 3.50523 -1.92701 1.875
    endloop
  endfacet
  facet normal 0.844329 -0.535825 0
    outer loop
      vertex 3.50523 -1.92701 -7.5
      vertex 3.23607 -2.35114 1.875
      vertex 3.23607 -2.35114 -7.5
    endloop
  endfacet
  facet normal -0.998027 -0.0627883 0
    outer loop
      vertex -3.96846 -0.501332 -1.875
      vertex -4 0 1.875
      vertex -4 0 -1.875
    endloop
  endfacet
  facet normal -0.998027 -0.0627883 0
    outer loop
      vertex -4 0 1.875
      vertex -3.96846 -0.501332 -1.875
      vertex -3.96846 -0.501332 1.875
    endloop
  endfacet
  facet normal -0.951061 -0.309004 0
    outer loop
      vertex -3.71911 -1.4725 -1.875
      vertex -3.87433 -0.994759 1.875
      vertex -3.87433 -0.994759 -1.875
    endloop
  endfacet
  facet normal -0.951061 -0.309004 0
    outer loop
      vertex -3.87433 -0.994759 1.875
      vertex -3.71911 -1.4725 -1.875
      vertex -3.71911 -1.4725 1.875
    endloop
  endfacet
  facet normal -0.770509 -0.637429 0
    outer loop
      vertex -2.91587 -2.73819 -1.875
      vertex -3.23607 -2.35114 1.875
      vertex -3.23607 -2.35114 -1.875
    endloop
  endfacet
  facet normal -0.770509 -0.637429 0
    outer loop
      vertex -3.23607 -2.35114 1.875
      vertex -2.91587 -2.73819 -1.875
      vertex -2.91587 -2.73819 1.875
    endloop
  endfacet
  facet normal -0.904824 -0.425786 0
    outer loop
      vertex -3.50523 -1.92701 -1.875
      vertex -3.71911 -1.4725 1.875
      vertex -3.71911 -1.4725 -1.875
    endloop
  endfacet
  facet normal -0.904824 -0.425786 0
    outer loop
      vertex -3.71911 -1.4725 1.875
      vertex -3.50523 -1.92701 -1.875
      vertex -3.50523 -1.92701 1.875
    endloop
  endfacet
  facet normal 0.684551 -0.728965 0
    outer loop
      vertex 2.5497 -3.08205 -7.5
      vertex 2.91587 -2.73819 1.875
      vertex 2.5497 -3.08205 1.875
    endloop
  endfacet
  facet normal 0.684551 -0.728965 0
    outer loop
      vertex 2.91587 -2.73819 1.875
      vertex 2.5497 -3.08205 -7.5
      vertex 2.91587 -2.73819 -7.5
    endloop
  endfacet
  facet normal 0.587786 -0.809017 0
    outer loop
      vertex 2.14331 -3.37731 -7.5
      vertex 2.5497 -3.08205 1.875
      vertex 2.14331 -3.37731 1.875
    endloop
  endfacet
  facet normal 0.587786 -0.809017 0
    outer loop
      vertex 2.5497 -3.08205 1.875
      vertex 2.14331 -3.37731 -7.5
      vertex 2.5497 -3.08205 -7.5
    endloop
  endfacet
  facet normal 0.904824 -0.425786 0
    outer loop
      vertex 3.50523 -1.92701 1.875
      vertex 3.71911 -1.4725 -7.5
      vertex 3.71911 -1.4725 1.875
    endloop
  endfacet
  facet normal 0.904824 -0.425786 0
    outer loop
      vertex 3.71911 -1.4725 -7.5
      vertex 3.50523 -1.92701 1.875
      vertex 3.50523 -1.92701 -7.5
    endloop
  endfacet
  facet normal -0.684551 -0.728965 0
    outer loop
      vertex -2.91587 -2.73819 -1.875
      vertex -2.5497 -3.08205 1.875
      vertex -2.91587 -2.73819 1.875
    endloop
  endfacet
  facet normal -0.684551 -0.728965 -0
    outer loop
      vertex -2.5497 -3.08205 1.875
      vertex -2.91587 -2.73819 -1.875
      vertex -2.5497 -3.08205 -1.875
    endloop
  endfacet
  facet normal 0 -1 0
    outer loop
      vertex 0 -3.99211 -1.875
      vertex -0.251162 -3.99211 1.875
      vertex -0.251162 -3.99211 -1.875
    endloop
  endfacet
  facet normal 0 -1 0
    outer loop
      vertex -0.251162 -3.99211 1.875
      vertex 0 -3.99211 -1.875
      vertex 0.251162 -3.99211 1.875
    endloop
  endfacet
  facet normal 0 -1 0
    outer loop
      vertex 0.251162 -3.99211 -7.5
      vertex 0 -3.99211 -1.875
      vertex 0 -3.99211 -7.5
    endloop
  endfacet
  facet normal 0 -1 0
    outer loop
      vertex 0 -3.99211 -1.875
      vertex 0.251162 -3.99211 -7.5
      vertex 0.251162 -3.99211 1.875
    endloop
  endfacet
  facet normal -0.481759 -0.876304 0
    outer loop
      vertex -2.14331 -3.37731 -1.875
      vertex -1.70312 -3.61931 1.875
      vertex -2.14331 -3.37731 1.875
    endloop
  endfacet
  facet normal -0.481759 -0.876304 -0
    outer loop
      vertex -1.70312 -3.61931 1.875
      vertex -2.14331 -3.37731 -1.875
      vertex -1.70312 -3.61931 -1.875
    endloop
  endfacet
  facet normal 0 0 -1
    outer loop
      vertex -1.27485 -1.54103 -7.5
      vertex 0 -3.99211 -7.5
      vertex 0 -4.5 -7.5
    endloop
  endfacet
  facet normal 0 0 -1
    outer loop
      vertex 0 -3.99211 -7.5
      vertex -0.374763 -1.96457 -7.5
      vertex -0.125581 -1.99605 -7.5
    endloop
  endfacet
  facet normal 0 0 -1
    outer loop
      vertex 0 -3.99211 -7.5
      vertex -0.618033 -1.90211 -7.5
      vertex -0.374763 -1.96457 -7.5
    endloop
  endfacet
  facet normal 0 0 -1
    outer loop
      vertex 0 -3.99211 -7.5
      vertex -0.851558 -1.80965 -7.5
      vertex -0.618033 -1.90211 -7.5
    endloop
  endfacet
  facet normal 0 0 -1
    outer loop
      vertex 0 -3.99211 -7.5
      vertex -1.07165 -1.68865 -7.5
      vertex -0.851558 -1.80965 -7.5
    endloop
  endfacet
  facet normal 0 0 -1
    outer loop
      vertex 0 -3.99211 -7.5
      vertex -1.27485 -1.54103 -7.5
      vertex -1.07165 -1.68865 -7.5
    endloop
  endfacet
  facet normal 0 0 -1
    outer loop
      vertex -7 -4.5 -7.5
      vertex -1.27485 -1.54103 -7.5
      vertex 0 -4.5 -7.5
    endloop
  endfacet
  facet normal -0 0 -1
    outer loop
      vertex -1.27485 -1.54103 -7.5
      vertex -7 -4.5 -7.5
      vertex -1.45794 -1.36909 -7.5
    endloop
  endfacet
  facet normal -0 0 -1
    outer loop
      vertex -1.45794 -1.36909 -7.5
      vertex -7 -4.5 -7.5
      vertex -1.61803 -1.17557 -7.5
    endloop
  endfacet
  facet normal -0 0 -1
    outer loop
      vertex -1.61803 -1.17557 -7.5
      vertex -7 -4.5 -7.5
      vertex -1.75261 -0.963507 -7.5
    endloop
  endfacet
  facet normal 0 0 -1
    outer loop
      vertex -7 0 -7.5
      vertex -1.75261 -0.963507 -7.5
      vertex -7 -4.5 -7.5
    endloop
  endfacet
  facet normal 0 0 -1
    outer loop
      vertex -1.75261 -0.963507 -7.5
      vertex -7 0 -7.5
      vertex -1.85955 -0.736249 -7.5
    endloop
  endfacet
  facet normal 0 0 -1
    outer loop
      vertex -1.85955 -0.736249 -7.5
      vertex -7 0 -7.5
      vertex -1.93717 -0.497379 -7.5
    endloop
  endfacet
  facet normal 0 0 -1
    outer loop
      vertex -1.93717 -0.497379 -7.5
      vertex -7 0 -7.5
      vertex -1.98423 -0.250666 -7.5
    endloop
  endfacet
  facet normal 0 0 -1
    outer loop
      vertex -1.98423 -0.250666 -7.5
      vertex -7 0 -7.5
      vertex -2 0 -7.5
    endloop
  endfacet
  facet normal 0 0 -1
    outer loop
      vertex 1.98423 -0.250666 -7.5
      vertex 3.96846 -0.501332 -7.5
      vertex 3.87433 -0.994759 -7.5
    endloop
  endfacet
  facet normal 0 0 -1
    outer loop
      vertex 1.93717 -0.497379 -7.5
      vertex 3.87433 -0.994759 -7.5
      vertex 3.71911 -1.4725 -7.5
    endloop
  endfacet
  facet normal 0 0 -1
    outer loop
      vertex 1.85955 -0.736249 -7.5
      vertex 3.71911 -1.4725 -7.5
      vertex 3.50523 -1.92701 -7.5
    endloop
  endfacet
  facet normal 0 0 -1
    outer loop
      vertex 1.75261 -0.963507 -7.5
      vertex 3.50523 -1.92701 -7.5
      vertex 3.23607 -2.35114 -7.5
    endloop
  endfacet
  facet normal 0 0 -1
    outer loop
      vertex 1.61803 -1.17557 -7.5
      vertex 3.23607 -2.35114 -7.5
      vertex 2.91587 -2.73819 -7.5
    endloop
  endfacet
  facet normal 0 0 -1
    outer loop
      vertex 1.45794 -1.36909 -7.5
      vertex 2.91587 -2.73819 -7.5
      vertex 2.5497 -3.08205 -7.5
    endloop
  endfacet
  facet normal 0 0 -1
    outer loop
      vertex 1.27485 -1.54103 -7.5
      vertex 2.5497 -3.08205 -7.5
      vertex 2.14331 -3.37731 -7.5
    endloop
  endfacet
  facet normal 0 0 -1
    outer loop
      vertex 3.50523 -1.92701 -7.5
      vertex 1.75261 -0.963507 -7.5
      vertex 1.85955 -0.736249 -7.5
    endloop
  endfacet
  facet normal -0 0 -1
    outer loop
      vertex 4 0 -7.5
      vertex 1.98423 -0.250666 -7.5
      vertex 2 0 -7.5
    endloop
  endfacet
  facet normal 0 0 -1
    outer loop
      vertex 3.96846 -0.501332 -7.5
      vertex 1.98423 -0.250666 -7.5
      vertex 4 0 -7.5
    endloop
  endfacet
  facet normal 0 -0 -1
    outer loop
      vertex 1.98423 -0.250666 -7.5
      vertex 3.87433 -0.994759 -7.5
      vertex 1.93717 -0.497379 -7.5
    endloop
  endfacet
  facet normal 0 0 -1
    outer loop
      vertex 3.71911 -1.4725 -7.5
      vertex 1.85955 -0.736249 -7.5
      vertex 1.93717 -0.497379 -7.5
    endloop
  endfacet
  facet normal 0 0 -1
    outer loop
      vertex 1.07165 -1.68865 -7.5
      vertex 2.14331 -3.37731 -7.5
      vertex 1.70312 -3.61931 -7.5
    endloop
  endfacet
  facet normal 0 0 -1
    outer loop
      vertex 3.23607 -2.35114 -7.5
      vertex 1.61803 -1.17557 -7.5
      vertex 1.75261 -0.963507 -7.5
    endloop
  endfacet
  facet normal 0 0 -1
    outer loop
      vertex 2.91587 -2.73819 -7.5
      vertex 1.45794 -1.36909 -7.5
      vertex 1.61803 -1.17557 -7.5
    endloop
  endfacet
  facet normal 0 0 -1
    outer loop
      vertex 2.5497 -3.08205 -7.5
      vertex 1.27485 -1.54103 -7.5
      vertex 1.45794 -1.36909 -7.5
    endloop
  endfacet
  facet normal 0 0 -1
    outer loop
      vertex 0.851558 -1.80965 -7.5
      vertex 1.70312 -3.61931 -7.5
      vertex 1.23607 -3.80423 -7.5
    endloop
  endfacet
  facet normal 0 0 -1
    outer loop
      vertex 2.14331 -3.37731 -7.5
      vertex 1.07165 -1.68865 -7.5
      vertex 1.27485 -1.54103 -7.5
    endloop
  endfacet
  facet normal 0 0 -1
    outer loop
      vertex 1.70312 -3.61931 -7.5
      vertex 0.851558 -1.80965 -7.5
      vertex 1.07165 -1.68865 -7.5
    endloop
  endfacet
  facet normal 0 0 -1
    outer loop
      vertex 0.618033 -1.90211 -7.5
      vertex 1.23607 -3.80423 -7.5
      vertex 0.749525 -3.92915 -7.5
    endloop
  endfacet
  facet normal 0 0 -1
    outer loop
      vertex 1.23607 -3.80423 -7.5
      vertex 0.618033 -1.90211 -7.5
      vertex 0.851558 -1.80965 -7.5
    endloop
  endfacet
  facet normal 0 0 -1
    outer loop
      vertex 0.749525 -3.92915 -7.5
      vertex 0.374763 -1.96457 -7.5
      vertex 0.618033 -1.90211 -7.5
    endloop
  endfacet
  facet normal 0 0 -1
    outer loop
      vertex 0.251162 -3.99211 -7.5
      vertex 0.374763 -1.96457 -7.5
      vertex 0.749525 -3.92915 -7.5
    endloop
  endfacet
  facet normal 0 0 -1
    outer loop
      vertex 0.251162 -3.99211 -7.5
      vertex 0.125581 -1.99605 -7.5
      vertex 0.374763 -1.96457 -7.5
    endloop
  endfacet
  facet normal 0 0 -1
    outer loop
      vertex 0 -3.99211 -7.5
      vertex 0.125581 -1.99605 -7.5
      vertex 0.251162 -3.99211 -7.5
    endloop
  endfacet
  facet normal -0 0 -1
    outer loop
      vertex 0.125581 -1.99605 -7.5
      vertex 0 -3.99211 -7.5
      vertex -0.125581 -1.99605 -7.5
    endloop
  endfacet
  facet normal -0.982286 -0.187389 0
    outer loop
      vertex -3.87433 -0.994759 -1.875
      vertex -3.96846 -0.501332 1.875
      vertex -3.96846 -0.501332 -1.875
    endloop
  endfacet
  facet normal -0.982286 -0.187389 0
    outer loop
      vertex -3.96846 -0.501332 1.875
      vertex -3.87433 -0.994759 -1.875
      vertex -3.87433 -0.994759 1.875
    endloop
  endfacet
  facet normal -0.844329 -0.535825 0
    outer loop
      vertex -3.23607 -2.35114 -1.875
      vertex -3.50523 -1.92701 1.875
      vertex -3.50523 -1.92701 -1.875
    endloop
  endfacet
  facet normal -0.844329 -0.535825 0
    outer loop
      vertex -3.50523 -1.92701 1.875
      vertex -3.23607 -2.35114 -1.875
      vertex -3.23607 -2.35114 1.875
    endloop
  endfacet
  facet normal -0.587786 -0.809017 0
    outer loop
      vertex -2.5497 -3.08205 -1.875
      vertex -2.14331 -3.37731 1.875
      vertex -2.5497 -3.08205 1.875
    endloop
  endfacet
  facet normal -0.587786 -0.809017 -0
    outer loop
      vertex -2.14331 -3.37731 1.875
      vertex -2.5497 -3.08205 -1.875
      vertex -2.14331 -3.37731 -1.875
    endloop
  endfacet
  facet normal -0.368128 -0.929775 0
    outer loop
      vertex -1.70312 -3.61931 -1.875
      vertex -1.23607 -3.80423 1.875
      vertex -1.70312 -3.61931 1.875
    endloop
  endfacet
  facet normal -0.368128 -0.929775 -0
    outer loop
      vertex -1.23607 -3.80423 1.875
      vertex -1.70312 -3.61931 -1.875
      vertex -1.23607 -3.80423 -1.875
    endloop
  endfacet
  facet normal 1 -0 0
    outer loop
      vertex 7 -4.5 7.5
      vertex 7 0 1.875
      vertex 7 0 7.5
    endloop
  endfacet
  facet normal 1 0 0
    outer loop
      vertex 7 0 1.875
      vertex 7 -4.5 7.5
      vertex 7 -4.5 1.875
    endloop
  endfacet
  facet normal 0 0 -1
    outer loop
      vertex 3.71911 -1.4725 1.875
      vertex 7 0 1.875
      vertex 7 -4.5 1.875
    endloop
  endfacet
  facet normal -0 0 -1
    outer loop
      vertex 7 0 1.875
      vertex 3.96846 -0.501332 1.875
      vertex 4 0 1.875
    endloop
  endfacet
  facet normal 0 0 -1
    outer loop
      vertex 7 0 1.875
      vertex 3.87433 -0.994759 1.875
      vertex 3.96846 -0.501332 1.875
    endloop
  endfacet
  facet normal 0 0 -1
    outer loop
      vertex 7 0 1.875
      vertex 3.71911 -1.4725 1.875
      vertex 3.87433 -0.994759 1.875
    endloop
  endfacet
  facet normal 0 0 -1
    outer loop
      vertex 7 -4.5 1.875
      vertex 3.50523 -1.92701 1.875
      vertex 3.71911 -1.4725 1.875
    endloop
  endfacet
  facet normal 0 0 -1
    outer loop
      vertex 7 -4.5 1.875
      vertex 3.23607 -2.35114 1.875
      vertex 3.50523 -1.92701 1.875
    endloop
  endfacet
  facet normal 0 0 -1
    outer loop
      vertex 7 -4.5 1.875
      vertex 2.91587 -2.73819 1.875
      vertex 3.23607 -2.35114 1.875
    endloop
  endfacet
  facet normal 0 0 -1
    outer loop
      vertex 7 -4.5 1.875
      vertex 2.5497 -3.08205 1.875
      vertex 2.91587 -2.73819 1.875
    endloop
  endfacet
  facet normal 0 0 -1
    outer loop
      vertex 7 -4.5 1.875
      vertex 2.14331 -3.37731 1.875
      vertex 2.5497 -3.08205 1.875
    endloop
  endfacet
  facet normal 0 0 -1
    outer loop
      vertex 7 -4.5 1.875
      vertex 1.70312 -3.61931 1.875
      vertex 2.14331 -3.37731 1.875
    endloop
  endfacet
  facet normal 0 0 -1
    outer loop
      vertex 7 -4.5 1.875
      vertex 1.23607 -3.80423 1.875
      vertex 1.70312 -3.61931 1.875
    endloop
  endfacet
  facet normal 0 0 -1
    outer loop
      vertex 7 -4.5 1.875
      vertex 0.749525 -3.92915 1.875
      vertex 1.23607 -3.80423 1.875
    endloop
  endfacet
  facet normal 0 0 -1
    outer loop
      vertex 7 -4.5 1.875
      vertex 0.251162 -3.99211 1.875
      vertex 0.749525 -3.92915 1.875
    endloop
  endfacet
  facet normal 0 0 -1
    outer loop
      vertex 7 -4.5 1.875
      vertex -0.251162 -3.99211 1.875
      vertex 0.251162 -3.99211 1.875
    endloop
  endfacet
  facet normal 0 0 -1
    outer loop
      vertex -7 -4.5 1.875
      vertex -0.251162 -3.99211 1.875
      vertex 7 -4.5 1.875
    endloop
  endfacet
  facet normal 0 0 -1
    outer loop
      vertex -7 -4.5 1.875
      vertex -0.749525 -3.92915 1.875
      vertex -0.251162 -3.99211 1.875
    endloop
  endfacet
  facet normal 0 0 -1
    outer loop
      vertex -7 -4.5 1.875
      vertex -1.23607 -3.80423 1.875
      vertex -0.749525 -3.92915 1.875
    endloop
  endfacet
  facet normal 0 0 -1
    outer loop
      vertex -7 -4.5 1.875
      vertex -1.70312 -3.61931 1.875
      vertex -1.23607 -3.80423 1.875
    endloop
  endfacet
  facet normal 0 0 -1
    outer loop
      vertex -7 -4.5 1.875
      vertex -2.14331 -3.37731 1.875
      vertex -1.70312 -3.61931 1.875
    endloop
  endfacet
  facet normal 0 0 -1
    outer loop
      vertex -7 -4.5 1.875
      vertex -2.5497 -3.08205 1.875
      vertex -2.14331 -3.37731 1.875
    endloop
  endfacet
  facet normal 0 0 -1
    outer loop
      vertex -7 -4.5 1.875
      vertex -2.91587 -2.73819 1.875
      vertex -2.5497 -3.08205 1.875
    endloop
  endfacet
  facet normal 0 0 -1
    outer loop
      vertex -7 -4.5 1.875
      vertex -3.23607 -2.35114 1.875
      vertex -2.91587 -2.73819 1.875
    endloop
  endfacet
  facet normal 0 0 -1
    outer loop
      vertex -7 -4.5 1.875
      vertex -3.50523 -1.92701 1.875
      vertex -3.23607 -2.35114 1.875
    endloop
  endfacet
  facet normal 0 0 -1
    outer loop
      vertex -7 -4.5 1.875
      vertex -3.71911 -1.4725 1.875
      vertex -3.50523 -1.92701 1.875
    endloop
  endfacet
  facet normal 0 0 -1
    outer loop
      vertex -7 0 1.875
      vertex -3.71911 -1.4725 1.875
      vertex -7 -4.5 1.875
    endloop
  endfacet
  facet normal 0 0 -1
    outer loop
      vertex -3.71911 -1.4725 1.875
      vertex -7 0 1.875
      vertex -3.87433 -0.994759 1.875
    endloop
  endfacet
  facet normal 0 0 -1
    outer loop
      vertex -3.87433 -0.994759 1.875
      vertex -7 0 1.875
      vertex -3.96846 -0.501332 1.875
    endloop
  endfacet
  facet normal 0 0 -1
    outer loop
      vertex -3.96846 -0.501332 1.875
      vertex -7 0 1.875
      vertex -4 0 1.875
    endloop
  endfacet
  facet normal 0 -1 0
    outer loop
      vertex -7 -4.5 1.875
      vertex 7 -4.5 7.5
      vertex -7 -4.5 7.5
    endloop
  endfacet
  facet normal 0 -1 -0
    outer loop
      vertex 7 -4.5 7.5
      vertex -7 -4.5 1.875
      vertex 7 -4.5 1.875
    endloop
  endfacet
  facet normal -1 0 0
    outer loop
      vertex -7 -4.5 -7.5
      vertex -7 0 -1.875
      vertex -7 0 -7.5
    endloop
  endfacet
  facet normal -1 -0 0
    outer loop
      vertex -7 0 -1.875
      vertex -7 -4.5 -7.5
      vertex -7 -4.5 -1.875
    endloop
  endfacet
  facet normal -0 0 1
    outer loop
      vertex -0.251162 -3.99211 -1.875
      vertex 0 -4.5 -1.875
      vertex 0 -3.99211 -1.875
    endloop
  endfacet
  facet normal 0 0 1
    outer loop
      vertex -0.749525 -3.92915 -1.875
      vertex 0 -4.5 -1.875
      vertex -0.251162 -3.99211 -1.875
    endloop
  endfacet
  facet normal 0 0 1
    outer loop
      vertex -1.23607 -3.80423 -1.875
      vertex 0 -4.5 -1.875
      vertex -0.749525 -3.92915 -1.875
    endloop
  endfacet
  facet normal 0 0 1
    outer loop
      vertex -7 -4.5 -1.875
      vertex -1.23607 -3.80423 -1.875
      vertex -1.70312 -3.61931 -1.875
    endloop
  endfacet
  facet normal -0 0 1
    outer loop
      vertex -7 0 -1.875
      vertex -3.96846 -0.501332 -1.875
      vertex -4 0 -1.875
    endloop
  endfacet
  facet normal 0 0 1
    outer loop
      vertex -7 0 -1.875
      vertex -3.87433 -0.994759 -1.875
      vertex -3.96846 -0.501332 -1.875
    endloop
  endfacet
  facet normal 0 0 1
    outer loop
      vertex -7 0 -1.875
      vertex -3.71911 -1.4725 -1.875
      vertex -3.87433 -0.994759 -1.875
    endloop
  endfacet
  facet normal 0 0 1
    outer loop
      vertex -7 -4.5 -1.875
      vertex -3.71911 -1.4725 -1.875
      vertex -7 0 -1.875
    endloop
  endfacet
  facet normal 0 0 1
    outer loop
      vertex -3.71911 -1.4725 -1.875
      vertex -7 -4.5 -1.875
      vertex -3.50523 -1.92701 -1.875
    endloop
  endfacet
  facet normal 0 0 1
    outer loop
      vertex -3.50523 -1.92701 -1.875
      vertex -7 -4.5 -1.875
      vertex -3.23607 -2.35114 -1.875
    endloop
  endfacet
  facet normal 0 0 1
    outer loop
      vertex -3.23607 -2.35114 -1.875
      vertex -7 -4.5 -1.875
      vertex -2.91587 -2.73819 -1.875
    endloop
  endfacet
  facet normal 0 0 1
    outer loop
      vertex -2.91587 -2.73819 -1.875
      vertex -7 -4.5 -1.875
      vertex -2.5497 -3.08205 -1.875
    endloop
  endfacet
  facet normal 0 0 1
    outer loop
      vertex -1.23607 -3.80423 -1.875
      vertex -7 -4.5 -1.875
      vertex 0 -4.5 -1.875
    endloop
  endfacet
  facet normal 0 0 1
    outer loop
      vertex -2.14331 -3.37731 -1.875
      vertex -7 -4.5 -1.875
      vertex -1.70312 -3.61931 -1.875
    endloop
  endfacet
  facet normal 0 0 1
    outer loop
      vertex -2.5497 -3.08205 -1.875
      vertex -7 -4.5 -1.875
      vertex -2.14331 -3.37731 -1.875
    endloop
  endfacet
  facet normal 1 -0 0
    outer loop
      vertex 0 -4.5 -1.875
      vertex 0 -3.99211 -7.5
      vertex 0 -3.99211 -1.875
    endloop
  endfacet
  facet normal 1 0 0
    outer loop
      vertex 0 -3.99211 -7.5
      vertex 0 -4.5 -1.875
      vertex 0 -4.5 -7.5
    endloop
  endfacet
  facet normal 0 -1 0
    outer loop
      vertex -7 -4.5 -7.5
      vertex 0 -4.5 -1.875
      vertex -7 -4.5 -1.875
    endloop
  endfacet
  facet normal 0 -1 -0
    outer loop
      vertex 0 -4.5 -1.875
      vertex -7 -4.5 -7.5
      vertex 0 -4.5 -7.5
    endloop
  endfacet
  facet normal -1 0 0
    outer loop
      vertex -7 -4.5 1.875
      vertex -7 0 7.5
      vertex -7 0 1.875
    endloop
  endfacet
  facet normal -1 -0 0
    outer loop
      vertex -7 0 7.5
      vertex -7 -4.5 1.875
      vertex -7 -4.5 7.5
    endloop
  endfacet
  facet normal -0.982289 0.18737 0
    outer loop
      vertex 1.93717 -0.497379 -7.5
      vertex 1.98423 -0.250666 7.5
      vertex 1.98423 -0.250666 -7.5
    endloop
  endfacet
  facet normal -0.982289 0.18737 0
    outer loop
      vertex 1.98423 -0.250666 7.5
      vertex 1.93717 -0.497379 -7.5
      vertex 1.93717 -0.497379 7.5
    endloop
  endfacet
  facet normal 0.684562 0.728955 -0
    outer loop
      vertex -1.27485 -1.54103 -7.5
      vertex -1.45794 -1.36909 7.5
      vertex -1.27485 -1.54103 7.5
    endloop
  endfacet
  facet normal 0.684562 0.728955 0
    outer loop
      vertex -1.45794 -1.36909 7.5
      vertex -1.27485 -1.54103 -7.5
      vertex -1.45794 -1.36909 -7.5
    endloop
  endfacet
  facet normal 0.904826 0.425781 0
    outer loop
      vertex -1.75261 -0.963507 7.5
      vertex -1.85955 -0.736249 -7.5
      vertex -1.85955 -0.736249 7.5
    endloop
  endfacet
  facet normal 0.904826 0.425781 0
    outer loop
      vertex -1.85955 -0.736249 -7.5
      vertex -1.75261 -0.963507 7.5
      vertex -1.75261 -0.963507 -7.5
    endloop
  endfacet
  facet normal -0.481764 0.876301 0
    outer loop
      vertex 1.07165 -1.68865 -7.5
      vertex 0.851558 -1.80965 7.5
      vertex 1.07165 -1.68865 7.5
    endloop
  endfacet
  facet normal -0.481764 0.876301 0
    outer loop
      vertex 0.851558 -1.80965 7.5
      vertex 1.07165 -1.68865 -7.5
      vertex 0.851558 -1.80965 -7.5
    endloop
  endfacet
  facet normal -0.998027 0.0627883 0
    outer loop
      vertex 1.98423 -0.250666 -7.5
      vertex 2 0 7.5
      vertex 2 0 -7.5
    endloop
  endfacet
  facet normal -0.998027 0.0627883 0
    outer loop
      vertex 2 0 7.5
      vertex 1.98423 -0.250666 -7.5
      vertex 1.98423 -0.250666 7.5
    endloop
  endfacet
  facet normal 0 1 -0
    outer loop
      vertex 0.125581 -1.99605 -7.5
      vertex -0.125581 -1.99605 7.5
      vertex 0.125581 -1.99605 7.5
    endloop
  endfacet
  facet normal 0 1 0
    outer loop
      vertex -0.125581 -1.99605 7.5
      vertex 0.125581 -1.99605 -7.5
      vertex -0.125581 -1.99605 -7.5
    endloop
  endfacet
  facet normal 0.951049 0.30904 0
    outer loop
      vertex -1.85955 -0.736249 7.5
      vertex -1.93717 -0.497379 -7.5
      vertex -1.93717 -0.497379 7.5
    endloop
  endfacet
  facet normal 0.951049 0.30904 0
    outer loop
      vertex -1.93717 -0.497379 -7.5
      vertex -1.85955 -0.736249 7.5
      vertex -1.85955 -0.736249 -7.5
    endloop
  endfacet
  facet normal 0.844327 0.535829 0
    outer loop
      vertex -1.61803 -1.17557 7.5
      vertex -1.75261 -0.963507 -7.5
      vertex -1.75261 -0.963507 7.5
    endloop
  endfacet
  facet normal 0.844327 0.535829 0
    outer loop
      vertex -1.75261 -0.963507 -7.5
      vertex -1.61803 -1.17557 7.5
      vertex -1.61803 -1.17557 -7.5
    endloop
  endfacet
  facet normal -0.125337 0.992114 0
    outer loop
      vertex 0.374763 -1.96457 -7.5
      vertex 0.125581 -1.99605 7.5
      vertex 0.374763 -1.96457 7.5
    endloop
  endfacet
  facet normal -0.125337 0.992114 0
    outer loop
      vertex 0.125581 -1.99605 7.5
      vertex 0.374763 -1.96457 -7.5
      vertex 0.125581 -1.99605 -7.5
    endloop
  endfacet
  facet normal -0.904826 0.425781 0
    outer loop
      vertex 1.75261 -0.963507 -7.5
      vertex 1.85955 -0.736249 7.5
      vertex 1.85955 -0.736249 -7.5
    endloop
  endfacet
  facet normal -0.904826 0.425781 0
    outer loop
      vertex 1.85955 -0.736249 7.5
      vertex 1.75261 -0.963507 -7.5
      vertex 1.75261 -0.963507 7.5
    endloop
  endfacet
  facet normal -0.951049 0.30904 0
    outer loop
      vertex 1.85955 -0.736249 -7.5
      vertex 1.93717 -0.497379 7.5
      vertex 1.93717 -0.497379 -7.5
    endloop
  endfacet
  facet normal -0.951049 0.30904 0
    outer loop
      vertex 1.93717 -0.497379 7.5
      vertex 1.85955 -0.736249 -7.5
      vertex 1.85955 -0.736249 7.5
    endloop
  endfacet
  facet normal 0.481764 0.876301 -0
    outer loop
      vertex -0.851558 -1.80965 -7.5
      vertex -1.07165 -1.68865 7.5
      vertex -0.851558 -1.80965 7.5
    endloop
  endfacet
  facet normal 0.481764 0.876301 0
    outer loop
      vertex -1.07165 -1.68865 7.5
      vertex -0.851558 -1.80965 -7.5
      vertex -1.07165 -1.68865 -7.5
    endloop
  endfacet
  facet normal 0.125337 0.992114 -0
    outer loop
      vertex -0.125581 -1.99605 -7.5
      vertex -0.374763 -1.96457 7.5
      vertex -0.125581 -1.99605 7.5
    endloop
  endfacet
  facet normal 0.125337 0.992114 0
    outer loop
      vertex -0.374763 -1.96457 7.5
      vertex -0.125581 -1.99605 -7.5
      vertex -0.374763 -1.96457 -7.5
    endloop
  endfacet
  facet normal 0.248686 0.968584 -0
    outer loop
      vertex -0.374763 -1.96457 -7.5
      vertex -0.618033 -1.90211 7.5
      vertex -0.374763 -1.96457 7.5
    endloop
  endfacet
  facet normal 0.248686 0.968584 0
    outer loop
      vertex -0.618033 -1.90211 7.5
      vertex -0.374763 -1.96457 -7.5
      vertex -0.618033 -1.90211 -7.5
    endloop
  endfacet
  facet normal 0.998027 0.0627883 0
    outer loop
      vertex -1.98423 -0.250666 7.5
      vertex -2 0 -7.5
      vertex -2 0 7.5
    endloop
  endfacet
  facet normal 0.998027 0.0627883 0
    outer loop
      vertex -2 0 -7.5
      vertex -1.98423 -0.250666 7.5
      vertex -1.98423 -0.250666 -7.5
    endloop
  endfacet
  facet normal 0.77052 0.637415 0
    outer loop
      vertex -1.45794 -1.36909 7.5
      vertex -1.61803 -1.17557 -7.5
      vertex -1.61803 -1.17557 7.5
    endloop
  endfacet
  facet normal 0.77052 0.637415 0
    outer loop
      vertex -1.61803 -1.17557 -7.5
      vertex -1.45794 -1.36909 7.5
      vertex -1.45794 -1.36909 -7.5
    endloop
  endfacet
  facet normal -0.368128 0.929775 0
    outer loop
      vertex 0.851558 -1.80965 -7.5
      vertex 0.618033 -1.90211 7.5
      vertex 0.851558 -1.80965 7.5
    endloop
  endfacet
  facet normal -0.368128 0.929775 0
    outer loop
      vertex 0.618033 -1.90211 7.5
      vertex 0.851558 -1.80965 -7.5
      vertex 0.618033 -1.90211 -7.5
    endloop
  endfacet
  facet normal -0.248686 0.968584 0
    outer loop
      vertex 0.618033 -1.90211 -7.5
      vertex 0.374763 -1.96457 7.5
      vertex 0.618033 -1.90211 7.5
    endloop
  endfacet
  facet normal -0.248686 0.968584 0
    outer loop
      vertex 0.374763 -1.96457 7.5
      vertex 0.618033 -1.90211 -7.5
      vertex 0.374763 -1.96457 -7.5
    endloop
  endfacet
  facet normal -0.58775 0.809042 0
    outer loop
      vertex 1.27485 -1.54103 -7.5
      vertex 1.07165 -1.68865 7.5
      vertex 1.27485 -1.54103 7.5
    endloop
  endfacet
  facet normal -0.58775 0.809042 0
    outer loop
      vertex 1.07165 -1.68865 7.5
      vertex 1.27485 -1.54103 -7.5
      vertex 1.07165 -1.68865 -7.5
    endloop
  endfacet
  facet normal -0.844327 0.535829 0
    outer loop
      vertex 1.61803 -1.17557 -7.5
      vertex 1.75261 -0.963507 7.5
      vertex 1.75261 -0.963507 -7.5
    endloop
  endfacet
  facet normal -0.844327 0.535829 0
    outer loop
      vertex 1.75261 -0.963507 7.5
      vertex 1.61803 -1.17557 -7.5
      vertex 1.61803 -1.17557 7.5
    endloop
  endfacet
  facet normal -0.77052 0.637415 0
    outer loop
      vertex 1.45794 -1.36909 -7.5
      vertex 1.61803 -1.17557 7.5
      vertex 1.61803 -1.17557 -7.5
    endloop
  endfacet
  facet normal -0.77052 0.637415 0
    outer loop
      vertex 1.61803 -1.17557 7.5
      vertex 1.45794 -1.36909 -7.5
      vertex 1.45794 -1.36909 7.5
    endloop
  endfacet
  facet normal 0.982289 0.18737 0
    outer loop
      vertex -1.93717 -0.497379 7.5
      vertex -1.98423 -0.250666 -7.5
      vertex -1.98423 -0.250666 7.5
    endloop
  endfacet
  facet normal 0.982289 0.18737 0
    outer loop
      vertex -1.98423 -0.250666 -7.5
      vertex -1.93717 -0.497379 7.5
      vertex -1.93717 -0.497379 -7.5
    endloop
  endfacet
  facet normal -0.684562 0.728955 0
    outer loop
      vertex 1.45794 -1.36909 -7.5
      vertex 1.27485 -1.54103 7.5
      vertex 1.45794 -1.36909 7.5
    endloop
  endfacet
  facet normal -0.684562 0.728955 0
    outer loop
      vertex 1.27485 -1.54103 7.5
      vertex 1.45794 -1.36909 -7.5
      vertex 1.27485 -1.54103 -7.5
    endloop
  endfacet
  facet normal 0.58775 0.809042 -0
    outer loop
      vertex -1.07165 -1.68865 -7.5
      vertex -1.27485 -1.54103 7.5
      vertex -1.07165 -1.68865 7.5
    endloop
  endfacet
  facet normal 0.58775 0.809042 0
    outer loop
      vertex -1.27485 -1.54103 7.5
      vertex -1.07165 -1.68865 -7.5
      vertex -1.27485 -1.54103 -7.5
    endloop
  endfacet
  facet normal 0.368128 0.929775 -0
    outer loop
      vertex -0.618033 -1.90211 -7.5
      vertex -0.851558 -1.80965 7.5
      vertex -0.618033 -1.90211 7.5
    endloop
  endfacet
  facet normal 0.368128 0.929775 0
    outer loop
      vertex -0.851558 -1.80965 7.5
      vertex -0.618033 -1.90211 -7.5
      vertex -0.851558 -1.80965 -7.5
    endloop
  endfacet
  facet normal 0 1 0
    outer loop
      vertex 4 0 1.875
      vertex 7 0 7.5
      vertex 7 0 1.875
    endloop
  endfacet
  facet normal 0 1 0
    outer loop
      vertex 7 0 7.5
      vertex 4 0 1.875
      vertex 2 0 7.5
    endloop
  endfacet
  facet normal 0 1 0
    outer loop
      vertex 2 0 -7.5
      vertex 4 0 1.875
      vertex 4 0 -7.5
    endloop
  endfacet
  facet normal 0 1 0
    outer loop
      vertex 4 0 1.875
      vertex 2 0 -7.5
      vertex 2 0 7.5
    endloop
  endfacet
  facet normal 0 1 0
    outer loop
      vertex -2 0 7.5
      vertex -4 0 1.875
      vertex -7 0 7.5
    endloop
  endfacet
  facet normal 0 1 0
    outer loop
      vertex -2 0 7.5
      vertex -4 0 -1.875
      vertex -4 0 1.875
    endloop
  endfacet
  facet normal 0 1 -0
    outer loop
      vertex -2 0 -7.5
      vertex -4 0 -1.875
      vertex -2 0 7.5
    endloop
  endfacet
  facet normal 0 1 0
    outer loop
      vertex -7 0 -7.5
      vertex -4 0 -1.875
      vertex -2 0 -7.5
    endloop
  endfacet
  facet normal 0 1 0
    outer loop
      vertex -4 0 -1.875
      vertex -7 0 -7.5
      vertex -7 0 -1.875
    endloop
  endfacet
  facet normal 0 1 0
    outer loop
      vertex -7 0 7.5
      vertex -4 0 1.875
      vertex -7 0 1.875
    endloop
  endfacet
  facet normal 0 1 0
    outer loop
      vertex 37 0 -1.875
      vertex 37 0 -7.5
      vertex 34 0 -1.875
    endloop
  endfacet
  facet normal 0 1 -0
    outer loop
      vertex 34 0 -1.875
      vertex 32 0 7.5
      vertex 34 0 7.5
    endloop
  endfacet
  facet normal 0 1 0
    outer loop
      vertex 34 0 -1.875
      vertex 32 0 -7.5
      vertex 32 0 7.5
    endloop
  endfacet
  facet normal 0 1 0
    outer loop
      vertex 32 0 -7.5
      vertex 34 0 -1.875
      vertex 37 0 -7.5
    endloop
  endfacet
  facet normal 0 1 0
    outer loop
      vertex 28 0 7.5
      vertex 26 0 1.875
      vertex 23 0 7.5
    endloop
  endfacet
  facet normal 0 1 0
    outer loop
      vertex 28 0 7.5
      vertex 26 0 -1.875
      vertex 26 0 1.875
    endloop
  endfacet
  facet normal 0 1 -0
    outer loop
      vertex 28 0 -7.5
      vertex 26 0 -1.875
      vertex 28 0 7.5
    endloop
  endfacet
  facet normal 0 1 0
    outer loop
      vertex 23 0 -7.5
      vertex 26 0 -1.875
      vertex 28 0 -7.5
    endloop
  endfacet
  facet normal 0 1 0
    outer loop
      vertex 26 0 -1.875
      vertex 23 0 -7.5
      vertex 23 0 -1.875
    endloop
  endfacet
  facet normal 0 1 0
    outer loop
      vertex 23 0 7.5
      vertex 26 0 1.875
      vertex 23 0 1.875
    endloop
  endfacet
endsolid OpenSCAD_Model
